<svg viewBox="0 0 400 400" xmlns="http://www.w3.org/2000/svg">
  <rect width="400" height="400" fill="#0d0d0d"/>
  <g transform="translate(200,175)" fill="none" stroke="#8855ff" stroke-width="2.5" stroke-linecap="round">
    <path d="M-55,-15 Q-60,-35 -40,-40 L40,-40 Q60,-35 55,-15 L55,15 Q55,25 45,25 L-45,25 Q-55,25 -55,15Z"/>
    <rect x="-35" y="-30" width="70" height="15" rx="4" stroke-width="1.5" opacity="0.5"/>
    <circle cx="-20" cy="-22" r="3" fill="#8855ff" opacity="0.4"/>
    <circle cx="0" cy="-22" r="3" fill="#8855ff" opacity="0.4"/>
    <circle cx="20" cy="-22" r="3" fill="#8855ff" opacity="0.4"/>
    <ellipse cx="0" cy="30" rx="60" ry="8" stroke-width="1.5" opacity="0.3"/>
    <line x1="-45" y1="25" x2="-45" y2="38" stroke-width="2"/>
    <line x1="45" y1="25" x2="45" y2="38" stroke-width="2"/>
    <rect x="-55" y="33" width="110" height="8" rx="3" stroke-width="1.5" opacity="0.4"/>
  </g>
  <text x="200" y="380" text-anchor="middle" fill="rgba(255,255,255,0.25)" font-family="monospace" font-size="9" letter-spacing="0.15em">GAUSSIAN PHANTAS · SCRUBBER</text>
</svg>