<svg viewBox="0 0 400 400" xmlns="http://www.w3.org/2000/svg">
  <rect width="400" height="400" fill="#0d0d0d"/>
  <g transform="translate(200,55)" fill="none" stroke="#cc0000" stroke-width="2.5" stroke-linecap="round">
    <rect x="-18" y="0" width="36" height="40" rx="10"/>
    <circle cx="-6" cy="18" r="2.5" fill="#cc0000"/><circle cx="6" cy="18" r="2.5" fill="#cc0000"/>
    <line x1="0" y1="40" x2="0" y2="130"/>
    <rect x="-28" y="50" width="56" height="70" rx="6" stroke-width="1.5" opacity="0.4"/>
    <line x1="0" y1="55" x2="-50" y2="105"/><line x1="-50" y1="105" x2="-55" y2="150"/>
    <line x1="0" y1="55" x2="50" y2="105"/><line x1="50" y1="105" x2="55" y2="150"/>
    <line x1="0" y1="130" x2="-22" y2="220"/><line x1="-22" y1="220" x2="-25" y2="285"/>
    <line x1="0" y1="130" x2="22" y2="220"/><line x1="22" y1="220" x2="25" y2="285"/>
    <rect x="-35" y="280" width="20" height="8" rx="2"/><rect x="15" y="280" width="20" height="8" rx="2"/>
  </g>
  <text x="200" y="380" text-anchor="middle" fill="rgba(255,255,255,0.25)" font-family="monospace" font-size="9" letter-spacing="0.15em">OPTIMUS GEN 3 · TESLA</text>
</svg>