<svg viewBox="0 0 400 400" xmlns="http://www.w3.org/2000/svg">
  <rect width="400" height="400" fill="#0d0d0d"/>
  <g transform="translate(200,180)" fill="none" stroke="#00aaff" stroke-width="2.5" stroke-linecap="round">
    <rect x="-35" y="-15" width="70" height="30" rx="8"/>
    <line x1="-35" y1="0" x2="-80" y2="-30"/><line x1="-80" y1="-30" x2="-95" y2="-30"/>
    <circle cx="-95" cy="-30" r="18" stroke-width="1.5"/>
    <line x1="35" y1="0" x2="80" y2="-30"/><line x1="80" y1="-30" x2="95" y2="-30"/>
    <circle cx="95" cy="-30" r="18" stroke-width="1.5"/>
    <line x1="-35" y1="0" x2="-80" y2="30"/><line x1="-80" y1="30" x2="-95" y2="30"/>
    <circle cx="-95" cy="30" r="18" stroke-width="1.5"/>
    <line x1="35" y1="0" x2="80" y2="30"/><line x1="80" y1="30" x2="95" y2="30"/>
    <circle cx="95" cy="30" r="18" stroke-width="1.5"/>
    <circle cx="0" cy="0" r="8" fill="#00aaff" opacity="0.3"/>
    <line x1="0" y1="15" x2="0" y2="45" stroke-width="1.5"/>
    <circle cx="0" cy="50" r="6" stroke-width="1.5"/>
  </g>
  <text x="200" y="380" text-anchor="middle" fill="rgba(255,255,255,0.25)" font-family="monospace" font-size="9" letter-spacing="0.15em">SKYDIO X10 · AUTONOMOUS</text>
</svg>